<svg xmlns="http://www.w3.org/2000/svg" viewBox="0 0 24 24">
  <path d="M17.472 14.347c-.297-.149-1.758-.867-2.028-.967-.272-.099-.472-.148-.672.149-.198.297-.768.967-.94 1.166-.173.198-.347.223-.644.074-.297-.149-1.255-.463-2.39-1.475-.883-.788-1.48-1.761-1.653-2.059-.173-.297-.018-.458.131-.606.135-.134.298-.347.446-.521.149-.174.198-.298.298-.497.099-.198.05-.372-.024-.521-.074-.148-.672-1.611-.923-2.203-.243-.583-.487-.504-.672-.513h-.571c-.198 0-.521.074-.793.372-.272.298-1.04 1.016-1.04 2.479 0 1.462 1.065 2.875 1.213 3.074.149.198 2.096 3.2 5.076 4.487.709.306 1.262.488 1.69.626.71.226 1.356.194 1.868.118.569-.085 1.758-.719 2.006-1.413.248-.694.248-1.29.173-1.414-.074-.124-.272-.198-.571-.347M11.78 22.132h-.004a9.87 9.87 0 01-5.031-1.382l-.361-.214-3.741.982.998-3.648-.236-.374A9.86 9.86 0 011.651 9.91C1.621 5.468 5.26 1.81 9.716 1.777h.027c4.385 0 8.026 3.592 8.06 7.966.016 2.137-.829 4.143-2.348 5.647a8.207 8.207 0 01-5.304 2.742c-.359.05-.716.074-1.073.074m8.413-15.936A11.815 11.815 0 009.74 0C4.504 0 .122 4.356.091 9.743c-.014 2.407.627 4.728 1.858 6.79L0 24l7.617-1.991a12.006 12.006 0 005.617 1.406h.005c6.41 0 11.635-5.191 11.664-11.587.015-3.107-1.195-6.032-3.39-8.212z"/>
</svg>
